<svg width="4" height="4" viewBox="0 0 4 4" fill="none" xmlns="http://www.w3.org/2000/svg">
<path d="M2.17839 3.92921C1.82914 3.92921 1.51571 3.8531 1.23809 3.70086C0.964961 3.54862 0.750036 3.33593 0.59332 3.0628C0.436604 2.78519 0.358246 2.47399 0.358246 2.12922C0.358246 1.78444 0.436604 1.47549 0.59332 1.20235C0.750036 0.92922 0.964961 0.716534 1.23809 0.564295C1.51571 0.412057 1.82914 0.335938 2.17839 0.335938C2.48287 0.335938 2.75376 0.396385 2.99108 0.517281C3.23287 0.633698 3.42317 0.806086 3.56197 1.03444L3.206 1.27623C3.08958 1.10161 2.94182 0.971757 2.76272 0.886683C2.58361 0.797131 2.38884 0.752355 2.17839 0.752355C1.92317 0.752355 1.69257 0.810564 1.4866 0.926981C1.28511 1.03892 1.12615 1.20012 1.00974 1.41056C0.897797 1.62101 0.841827 1.86056 0.841827 2.12922C0.841827 2.40235 0.897797 2.64414 1.00974 2.85459C1.12615 3.06056 1.28511 3.22175 1.4866 3.33817C1.69257 3.45011 1.92317 3.50608 2.17839 3.50608C2.38884 3.50608 2.58361 3.46354 2.76272 3.37847C2.94182 3.29339 3.08958 3.16354 3.206 2.98892L3.56197 3.23071C3.42317 3.45907 3.23287 3.63369 2.99108 3.75459C2.74929 3.87101 2.47839 3.92921 2.17839 3.92921Z" fill="white"/>
</svg>
