<svg width="26" height="26" viewBox="0 0 26 26" fill="none" xmlns="http://www.w3.org/2000/svg">
<g clip-path="url(#clip0_1_5239)">
<path d="M3.82099 0.930157C3.60211 1.0556 3.42509 1.24281 3.31209 1.46836C3.19909 1.69391 3.15512 1.94778 3.18569 2.19819L5.12365 22.9953C5.24753 24.0051 6.4417 24.4757 7.22088 23.8217L10.8667 20.7619L12.7006 23.9384C13.7552 25.7648 15.8732 25.9569 17.6993 24.9023C19.5262 23.8476 20.4188 21.9176 19.3642 20.0912L17.5367 16.926L21.939 15.3243C22.8948 14.9763 23.0844 13.7072 22.2719 13.095L5.22983 1.01787C5.02933 0.867034 4.78899 0.778324 4.53857 0.762733C4.28815 0.747141 4.03865 0.805353 3.82099 0.930157ZM6.09801 4.88199L18.8412 13.7221L13.7852 15.5618L13.8088 15.5985L17.143 21.3736C17.5093 22.0079 17.0517 22.3149 16.4172 22.6811C15.7827 23.0474 15.2882 23.2903 14.9219 22.656L11.5877 16.8809L11.5613 16.8301L7.38221 20.338L6.09801 4.88199Z" fill="#5B66FE"/>
</g>
<defs>
<clipPath id="clip0_1_5239">
<rect width="25.6479" height="25.6479" fill="white" transform="translate(0.15564 0.328369)"/>
</clipPath>
</defs>
</svg>
