<svg width="66" height="32" viewBox="0 0 66 32" fill="none" xmlns="http://www.w3.org/2000/svg">
<path d="M25.3911 27.6042C16.8688 25.6246 -6.11434 16.6326 1.53551 6.16435C16.4787 19.0375 35.7453 25.7692 55.4539 25.0033L63.6406 24.6851V26.195C62.0301 31.0265 50.8371 33.8851 25.3911 27.6042Z" fill="#4169E1"/>
<path d="M63.4397 22.37L65.5535 17.1358L63.4397 16.6326C62.641 16.0336 61.8926 15.3389 61.0791 14.7601C57.6528 12.3217 47.415 6.50035 38.6782 4.25186C26.8887 1.21772 6.14028 -2.18959 1.38006 4.89591C-0.267976 7.34898 1.10018 10.6025 3.28726 12.59C13.8706 22.2076 45.5782 33.1901 63.4397 24.4838L58.1049 20.6589C50.8576 24.7858 34.1486 23.477 18.6476 15.7266C13.0108 12.9083 4.35432 4.45317 20.56 3.64786C31.2296 2.54068 50.0524 8.27806 58.1049 15.7266H55.8904L63.4397 22.37Z" fill="#000080"/>
</svg>
