<svg width="252" height="101" viewBox="0 0 252 101" fill="none" xmlns="http://www.w3.org/2000/svg">
<rect x="0.500305" y="0.177734" width="250.854" height="99.9163" rx="6.37763" fill="white"/>
<path d="M109.812 56.1646C105.346 56.1646 101.242 58.9905 99.0461 61.0195C98.2624 61.7103 97.5958 62.5231 97.0721 63.4265C97.1923 62.2861 97.557 61.185 98.1413 60.198V56.5999H89.9165V94.4458H98.1413V65.1516C99.6794 63.2047 102.928 60.9374 106.366 60.9374C113.505 60.9374 113.769 65.8663 113.769 70.327V94.4458H121.829V67.4189C121.829 60.2145 115.907 56.1646 109.829 56.1646" fill="#6D6E71"/>
<path d="M141.666 92.4989C135.498 92.4989 134.56 88.6872 134.56 88.6872V63.8536C136.756 61.1838 138.829 60.5677 141.42 60.5677C146.042 60.5677 152.367 64.0754 152.367 75.6502C152.367 88.4407 146.799 92.4906 142.834 92.4906L141.666 92.4989ZM145.672 56.2056C141.928 56.1068 138.292 57.4647 135.531 59.9927C134.729 60.7011 134.046 61.5331 133.507 62.4571C133.728 61.2899 134.081 60.1516 134.56 59.0644V39.3569H126.163V90.9134C127.133 91.3981 135.21 95.6123 141.675 95.6123C154.645 95.6123 161.135 85.1712 161.135 75.2969C161.135 66.8767 155.78 56.1645 145.655 56.1645" fill="#6D6E71"/>
<path d="M186.385 42.7249C186.105 42.3362 185.767 41.9927 185.382 41.7063C184.899 41.2875 184.39 40.898 183.86 40.5398C181.739 39.2407 179.282 38.5923 176.795 38.675C168.932 38.675 164.524 44.1872 164.524 50.4962V94.4457H172.576V61.3891H179.361V57.2817H172.782C171.699 57.3052 170.627 57.5022 169.607 57.8649C170.434 57.0242 171.444 56.3859 172.56 56.0001V49.6747C172.56 47.4074 172.806 42.9796 178.152 42.9796C179.278 43.0069 180.38 43.3031 181.368 43.8433C182.355 44.3836 183.199 45.1522 183.828 46.0848L186.385 42.7249Z" fill="#6D6E71"/>
<path d="M64.115 40.9263C65.2994 47.9335 78.7881 50.4884 89.4228 44.0315C77.4557 54.0125 66.311 53.7497 64.115 50.6034V40.9263Z" fill="#00AEEF"/>
<path d="M87.2924 18.4422C98.7003 11.2378 114.73 14.5813 119.567 25.5645V17.744C117.823 10.3506 100.304 6.59642 87.2924 18.4422ZM94.2589 12.2975C104.894 5.82422 118.399 8.37083 119.567 15.3863V5.72564C117.371 2.56292 106.234 2.30005 94.2589 12.2975ZM80.6632 25.2359C95.4679 13.1026 114.665 22.2211 119.567 50.3898V29.2448C117.214 19.7895 96.348 8.51869 80.6632 25.2359Z" fill="#6D6E71"/>
<path d="M64.115 30.748C68.9512 41.7313 84.9896 45.0665 96.381 37.8703C83.3529 49.7079 65.8669 45.9209 64.115 38.5439V30.748Z" fill="#00AEEF"/>
<path d="M64.115 5.91455C69.0499 34.0833 88.1973 43.21 103.027 31.0685C87.3419 47.7939 66.4673 36.5149 64.115 27.076V5.91455Z" fill="#00AEEF"/>
</svg>
