<svg width="252" height="101" viewBox="0 0 252 101" fill="none" xmlns="http://www.w3.org/2000/svg">
<rect x="0.804901" y="0.352539" width="250.854" height="99.9163" rx="6.37763" fill="white"/>
<path d="M47.5001 24.689L34.1645 35.0611C38.6645 35.0611 50.0001 39.189 54.5001 60.189C57.3334 52.189 54.5001 34.189 47.5001 24.689Z" fill="#EE3E42"/>
<path d="M69.8836 72.9113L67.417 56.198C65.2025 60.1154 56.0306 67.952 35.535 61.5349C41.1049 67.9383 58.1688 74.3299 69.8836 72.9113Z" fill="#EE3E42"/>
<path d="M18.0438 69.4424L33.6941 75.8053C31.4441 71.9082 29.3512 60.0274 45.2877 45.6303C36.9428 47.1765 22.771 58.6303 18.0438 69.4424Z" fill="#EE3E42"/>
<path d="M83.5001 25.689V43.189M83.5001 43.189C86.5001 28.189 98.5001 28.689 99.5001 43.189M83.5001 43.189H78.5001V40.689M83.5001 43.189H99.5001M99.5001 43.189H131.5M149 43.189H162L163.5 41.189M149 43.189V34.689M149 43.189H140.5M140.5 43.189V35.189M140.5 43.189H131.5M131.5 43.189V36.689M181 33.689V41.189C181 42.2935 181.896 43.189 183 43.189H197.672C198.202 43.189 198.711 42.9783 199.086 42.6032L200.5 41.189M200.5 41.189V24.689M200.5 41.189L202.452 42.7507C202.807 43.0344 203.248 43.189 203.702 43.189H214.028C214.338 43.189 214.645 43.1167 214.922 42.9778L216.5 42.189M216.5 42.189V34.689M216.5 42.189L218.642 43.0459C218.879 43.1404 219.131 43.189 219.385 43.189H228.172C228.702 43.189 229.211 42.9783 229.586 42.6032L230.914 41.2748C231.289 40.8997 231.5 40.391 231.5 39.8605V31.689M186.5 36.689H190M195 36.689H190M190 36.689V33.189C190 32.6367 190.448 32.189 191 32.189H195" stroke="#121212" stroke-width="3"/>
<circle cx="115" cy="36.689" r="4.5" stroke="#121212" stroke-width="3"/>
<circle cx="167" cy="37.689" r="4.5" stroke="#121212" stroke-width="3"/>
<circle cx="216.5" cy="30.189" r="1.28571" fill="#121212" stroke="#121212" stroke-width="0.428571"/>
<circle cx="112.5" cy="26.189" r="1.28571" fill="#121212" stroke="#121212" stroke-width="0.428571"/>
<circle cx="117.5" cy="26.189" r="1.28571" fill="#121212" stroke="#121212" stroke-width="0.428571"/>
<path d="M86.1879 72.3706C85.1135 72.3706 84.1903 72.1436 83.4185 71.6896C82.6467 71.2356 82.0565 70.547 81.6479 69.6239C81.2393 68.6856 81.035 67.5052 81.035 66.0827C81.035 64.645 81.2469 63.4646 81.6706 62.5415C82.1095 61.6184 82.7148 60.9298 83.4866 60.4758C84.2584 60.0218 85.1589 59.7948 86.1879 59.7948C87.338 59.7948 88.3671 60.0521 89.2751 60.5666C90.1982 61.0811 90.9246 61.8075 91.4543 62.7458C91.9991 63.6841 92.2715 64.7964 92.2715 66.0827C92.2715 67.3539 91.9991 68.4586 91.4543 69.3969C90.9246 70.3351 90.1982 71.0691 89.2751 71.5988C88.3671 72.1133 87.338 72.3706 86.1879 72.3706ZM78.9693 72.189V55.3456H82.5105V62.4507L82.2835 66.06L82.3516 69.692V72.189H78.9693ZM85.575 69.465C86.1652 69.465 86.6873 69.3288 87.1413 69.0564C87.6104 68.784 87.9812 68.3981 88.2536 67.8987C88.5411 67.3842 88.6849 66.7788 88.6849 66.0827C88.6849 65.3714 88.5411 64.7661 88.2536 64.2667C87.9812 63.7673 87.6104 63.3814 87.1413 63.109C86.6873 62.8366 86.1652 62.7004 85.575 62.7004C84.9848 62.7004 84.4552 62.8366 83.986 63.109C83.5169 63.3814 83.1461 63.7673 82.8737 64.2667C82.6013 64.7661 82.4651 65.3714 82.4651 66.0827C82.4651 66.7788 82.6013 67.3842 82.8737 67.8987C83.1461 68.3981 83.5169 68.784 83.986 69.0564C84.4552 69.3288 84.9848 69.465 85.575 69.465ZM101.933 72.189V69.8055L101.706 69.2834V65.0158C101.706 64.2591 101.472 63.6689 101.003 63.2452C100.549 62.8215 99.8451 62.6096 98.8917 62.6096C98.241 62.6096 97.5978 62.7155 96.9622 62.9274C96.3417 63.1241 95.8121 63.3965 95.3732 63.7446L94.102 61.2703C94.7679 60.8012 95.5699 60.438 96.5082 60.1807C97.4465 59.9235 98.3999 59.7948 99.3684 59.7948C101.23 59.7948 102.675 60.2337 103.704 61.1114C104.733 61.9891 105.248 63.3587 105.248 65.2201V72.189H101.933ZM98.2107 72.3706C97.2573 72.3706 96.4401 72.2117 95.7591 71.8939C95.0781 71.5609 94.556 71.1145 94.1928 70.5546C93.8296 69.9946 93.648 69.3666 93.648 68.6705C93.648 67.9441 93.8221 67.3085 94.1701 66.7637C94.5333 66.2189 95.1008 65.7952 95.8726 65.4925C96.6444 65.1747 97.6508 65.0158 98.8917 65.0158H102.138V67.0815H99.2776C98.4453 67.0815 97.8702 67.2177 97.5524 67.4901C97.2497 67.7625 97.0984 68.103 97.0984 68.5116C97.0984 68.9656 97.2724 69.3288 97.6205 69.6012C97.9837 69.8584 98.4755 69.9871 99.096 69.9871C99.6862 69.9871 100.216 69.8509 100.685 69.5785C101.154 69.2909 101.495 68.8748 101.706 68.33L102.251 69.9644C101.994 70.7513 101.525 71.3491 100.844 71.7577C100.163 72.1663 99.2852 72.3706 98.2107 72.3706ZM115.875 59.7948C116.844 59.7948 117.707 59.9916 118.463 60.385C119.235 60.7633 119.84 61.3535 120.279 62.1556C120.718 62.9425 120.938 63.9565 120.938 65.1974V72.189H117.396V65.7422C117.396 64.7585 117.177 64.0321 116.738 63.563C116.314 63.0939 115.709 62.8593 114.922 62.8593C114.362 62.8593 113.855 62.9804 113.401 63.2225C112.962 63.4495 112.614 63.8051 112.357 64.2894C112.115 64.7737 111.994 65.3941 111.994 66.1508V72.189H108.453V59.9764H111.835V63.3587L111.199 62.3372C111.638 61.52 112.266 60.892 113.083 60.4531C113.901 60.0143 114.831 59.7948 115.875 59.7948ZM127.076 69.692L127.167 65.379L132.864 59.9764H137.086L131.616 65.5379L129.777 67.0361L127.076 69.692ZM124.147 72.189V55.3456H127.689V72.189H124.147ZM133.25 72.189L129.119 67.0588L131.343 64.3121L137.54 72.189H133.25ZM161.202 59.7948C162.17 59.7948 163.025 59.9916 163.767 60.385C164.524 60.7633 165.114 61.3535 165.538 62.1556C165.976 62.9425 166.196 63.9565 166.196 65.1974V72.189H162.655V65.7422C162.655 64.7585 162.45 64.0321 162.042 63.563C161.633 63.0939 161.058 62.8593 160.317 62.8593C159.802 62.8593 159.34 62.9804 158.932 63.2225C158.523 63.4495 158.205 63.7976 157.978 64.2667C157.751 64.7358 157.638 65.3336 157.638 66.06V72.189H154.097V65.7422C154.097 64.7585 153.892 64.0321 153.484 63.563C153.09 63.0939 152.523 62.8593 151.781 62.8593C151.267 62.8593 150.805 62.9804 150.397 63.2225C149.988 63.4495 149.67 63.7976 149.443 64.2667C149.216 64.7358 149.103 65.3336 149.103 66.06V72.189H145.562V59.9764H148.944V63.3133L148.308 62.3372C148.732 61.5049 149.33 60.8768 150.102 60.4531C150.889 60.0143 151.781 59.7948 152.78 59.7948C153.9 59.7948 154.876 60.0824 155.708 60.6574C156.556 61.2173 157.116 62.0799 157.388 63.2452L156.14 62.9047C156.548 61.9513 157.199 61.1946 158.092 60.6347C159 60.0748 160.037 59.7948 161.202 59.7948ZM174.523 72.3706C173.509 72.3706 172.601 72.1738 171.799 71.7804C171.012 71.3869 170.399 70.7891 169.96 69.9871C169.521 69.1699 169.302 68.1332 169.302 66.8772V59.9764H172.843V66.3551C172.843 67.369 173.055 68.1181 173.479 68.6024C173.917 69.0715 174.53 69.3061 175.317 69.3061C175.862 69.3061 176.346 69.1926 176.77 68.9656C177.194 68.7234 177.527 68.3602 177.769 67.876C178.011 67.3766 178.132 66.7561 178.132 66.0146V59.9764H181.673V72.189H178.314V68.8294L178.927 69.8055C178.518 70.6529 177.913 71.2961 177.111 71.735C176.324 72.1587 175.461 72.3706 174.523 72.3706ZM189.063 72.3706C188.018 72.3706 187.012 72.2495 186.044 72.0074C185.09 71.7501 184.333 71.4323 183.774 71.054L184.954 68.5116C185.514 68.8596 186.172 69.1472 186.929 69.3742C187.701 69.586 188.457 69.692 189.199 69.692C190.016 69.692 190.591 69.5936 190.924 69.3969C191.272 69.2001 191.446 68.9277 191.446 68.5797C191.446 68.2921 191.31 68.0803 191.038 67.9441C190.78 67.7928 190.432 67.6793 189.993 67.6036C189.554 67.5279 189.07 67.4523 188.541 67.3766C188.026 67.3009 187.504 67.2026 186.974 67.0815C186.445 66.9453 185.96 66.7486 185.521 66.4913C185.083 66.234 184.727 65.886 184.455 65.4471C184.197 65.0082 184.069 64.4407 184.069 63.7446C184.069 62.9728 184.288 62.2918 184.727 61.7016C185.181 61.1114 185.832 60.6498 186.679 60.3169C187.527 59.9689 188.541 59.7948 189.721 59.7948C190.553 59.7948 191.401 59.8856 192.263 60.0672C193.126 60.2488 193.845 60.5136 194.42 60.8617L193.239 63.3814C192.649 63.0333 192.051 62.7988 191.446 62.6777C190.856 62.5415 190.281 62.4734 189.721 62.4734C188.934 62.4734 188.359 62.5793 187.996 62.7912C187.633 63.0031 187.451 63.2755 187.451 63.6084C187.451 63.9111 187.58 64.1381 187.837 64.2894C188.109 64.4407 188.465 64.5618 188.904 64.6526C189.343 64.7434 189.819 64.8266 190.334 64.9023C190.863 64.9628 191.393 65.0612 191.923 65.1974C192.452 65.3336 192.929 65.5303 193.353 65.7876C193.792 66.0297 194.147 66.3702 194.42 66.8091C194.692 67.2328 194.828 67.7928 194.828 68.4889C194.828 69.2455 194.601 69.919 194.147 70.5092C193.693 71.0842 193.035 71.5382 192.173 71.8712C191.325 72.2041 190.288 72.3706 189.063 72.3706ZM202.915 72.3706C201.599 72.3706 200.426 72.1057 199.397 71.5761C198.368 71.0313 197.558 70.2822 196.968 69.3288C196.393 68.3754 196.105 67.2934 196.105 66.0827C196.105 64.8569 196.393 63.7749 196.968 62.8366C197.558 61.8832 198.368 61.1417 199.397 60.612C200.426 60.0672 201.599 59.7948 202.915 59.7948C204.202 59.7948 205.321 60.0672 206.275 60.612C207.228 61.1417 207.932 61.9059 208.386 62.9047L205.639 64.3802C205.321 63.8051 204.92 63.3814 204.436 63.109C203.967 62.8366 203.452 62.7004 202.893 62.7004C202.287 62.7004 201.742 62.8366 201.258 63.109C200.774 63.3814 200.388 63.7673 200.1 64.2667C199.828 64.7661 199.692 65.3714 199.692 66.0827C199.692 66.794 199.828 67.3993 200.1 67.8987C200.388 68.3981 200.774 68.784 201.258 69.0564C201.742 69.3288 202.287 69.465 202.893 69.465C203.452 69.465 203.967 69.3363 204.436 69.0791C204.92 68.8067 205.321 68.3754 205.639 67.7852L208.386 69.2834C207.932 70.267 207.228 71.0313 206.275 71.5761C205.321 72.1057 204.202 72.3706 202.915 72.3706ZM217.916 72.189V69.8055L217.689 69.2834V65.0158C217.689 64.2591 217.454 63.6689 216.985 63.2452C216.531 62.8215 215.827 62.6096 214.874 62.6096C214.223 62.6096 213.58 62.7155 212.945 62.9274C212.324 63.1241 211.794 63.3965 211.356 63.7446L210.084 61.2703C210.75 60.8012 211.552 60.438 212.491 60.1807C213.429 59.9235 214.382 59.7948 215.351 59.7948C217.212 59.7948 218.657 60.2337 219.686 61.1114C220.715 61.9891 221.23 63.3587 221.23 65.2201V72.189H217.916ZM214.193 72.3706C213.24 72.3706 212.422 72.2117 211.741 71.8939C211.06 71.5609 210.538 71.1145 210.175 70.5546C209.812 69.9946 209.63 69.3666 209.63 68.6705C209.63 67.9441 209.804 67.3085 210.152 66.7637C210.516 66.2189 211.083 65.7952 211.855 65.4925C212.627 65.1747 213.633 65.0158 214.874 65.0158H218.12V67.0815H215.26C214.428 67.0815 213.853 67.2177 213.535 67.4901C213.232 67.7625 213.081 68.103 213.081 68.5116C213.081 68.9656 213.255 69.3288 213.603 69.6012C213.966 69.8584 214.458 69.9871 215.078 69.9871C215.669 69.9871 216.198 69.8509 216.667 69.5785C217.136 69.2909 217.477 68.8748 217.689 68.33L218.234 69.9644C217.976 70.7513 217.507 71.3491 216.826 71.7577C216.145 72.1663 215.267 72.3706 214.193 72.3706ZM229.429 72.3706C227.991 72.3706 226.871 72.0074 226.069 71.281C225.267 70.5394 224.866 69.4423 224.866 67.9895V57.2751H228.407V67.9441C228.407 68.4586 228.544 68.8596 228.816 69.1472C229.088 69.4196 229.459 69.5558 229.928 69.5558C230.488 69.5558 230.965 69.4044 231.358 69.1018L232.312 71.5988C231.949 71.856 231.51 72.0528 230.995 72.189C230.496 72.31 229.974 72.3706 229.429 72.3706ZM222.982 62.9728V60.2488H231.449V62.9728H222.982Z" fill="#121212"/>
</svg>
